<?xml version="1.0" standalone="no"?><!DOCTYPE svg PUBLIC "-//W3C//DTD SVG 1.1//EN" "http://www.w3.org/Graphics/SVG/1.1/DTD/svg11.dtd"><svg t="1493382449802" class="icon" style="" viewBox="0 0 1024 1024" version="1.1" xmlns="http://www.w3.org/2000/svg" p-id="3150" xmlns:xlink="http://www.w3.org/1999/xlink" width="500" height="500"><defs><style type="text/css"></style></defs><path d="M249.174045 15.678248c64.858563 0 123.560161 26.227312 166.04955 68.646156 0.480443 0.546124 0.959669 1.02535 1.435247 1.57269 41.601482 42.275319 67.325242 100.269023 67.325242 164.201974l0 208.602188c0 14.272192-11.564684 25.817416-25.861203 25.817416L249.174045 484.518671c-64.792883 0-123.427583-26.226096-165.912107-68.644939l-0.066897-0.071762-0.071762 0.071762C40.638754 373.454888 14.364006 314.848163 14.364006 250.099068c0-64.683415 26.274748-123.355821 68.759273-165.774664C125.609019 41.90556 184.381162 15.678248 249.174045 15.678248L249.174045 15.678248 249.174045 15.678248zM378.621151 120.866032c-33.116497-33.059331-78.889926-53.479975-129.447106-53.479975-50.563261 0-96.330609 20.420644-129.447106 53.479975-33.116497 33.058114-53.569982 78.756132-53.569982 129.233035s20.453484 96.168839 53.569982 129.233035l0 0.065681C152.843436 412.390217 198.610784 432.810861 249.174045 432.810861L432.191133 432.810861 432.191133 250.099068c0-49.863882-19.908577-95.010911-52.268529-128.003345L378.621151 120.866032 378.621151 120.866032zM703.603616 592.162187c-14.301384 0-25.926884-11.607255-25.926884-25.884313 0-14.206512 11.626716-25.818632 25.926884-25.818632l71.221086 0c64.863429 0 123.565026 26.227312 166.050767 68.646156 0.480443 0.546124 0.959669 1.021701 1.440112 1.567825 41.596617 42.2814 67.320377 100.273889 67.320377 164.201974 0 64.68828-26.274748 123.223243-68.759273 165.642086l-0.137443 0.137443c-42.48574 42.413978-101.120441 68.64129-165.912107 68.64129-64.788017 0-123.422718-26.227312-165.912107-68.64129l-0.066897-0.071762-0.066897 0.071762c-42.490606-42.418843-68.759273-101.025569-68.759273-165.774664L540.021961 566.277875c0-14.206512 11.626716-25.818632 25.861203-25.818632 14.296519 0 25.926884 11.61212 25.926884 25.818632l0 208.602188c0 50.472038 20.45835 96.168839 53.574847 129.22817l0 0.071762c33.111632 32.987568 78.883845 53.413078 129.442241 53.413078 50.562045 0 96.402371-20.425509 129.517652-53.413078 33.044735-33.059331 53.503085-78.827894 53.503085-129.299932 0-49.863882-19.912226-95.009695-52.273394-128.002129l-1.301453-1.230907c-33.116497-33.059331-78.883845-53.48484-129.447106-53.48484L703.603616 592.162187 703.603616 592.162187zM249.174045 957.591856c50.55718 0 96.402371-20.425509 129.512787-53.413078 33.0496-33.059331 53.504301-78.827894 53.504301-129.299932L432.191133 592.162187 249.174045 592.162187c-50.563261 0-96.330609 20.425509-129.447106 53.48484s-53.569982 78.756132-53.569982 129.233035c0 50.472038 20.453484 96.168839 53.569982 129.22817l1.230907 1.296587C154.002581 937.718552 199.22867 957.591856 249.174045 957.591856L249.174045 957.591856 249.174045 957.591856zM415.086152 940.654727C372.600412 983.068705 313.965711 1009.294801 249.174045 1009.294801c-64.037554 0-122.124914-25.679972-164.478077-67.206044-0.546124-0.480443-1.026566-0.959669-1.57269-1.435247C40.638754 898.235884 14.364006 839.629158 14.364006 774.880063c0-64.683415 26.274748-123.360686 68.759273-165.774664 42.48574-42.418843 101.257884-68.646156 166.050767-68.646156L458.122881 540.459243c14.296519 0 25.861203 11.61212 25.861203 25.818632l0 208.602188c0 64.68828-26.269883 123.223243-68.760489 165.637221L415.086152 940.654727 415.086152 940.654727zM774.824702 67.386058c-50.55718 0-96.330609 20.420644-129.442241 53.479975-33.116497 33.058114-53.574847 78.756132-53.574847 129.233035l0 182.711794 183.017088 0c50.562045 0 96.402371-20.420644 129.517652-53.413078 33.044735-33.058114 53.503085-78.821813 53.503085-129.298716s-20.45835-96.174921-53.503085-129.233035l-0.071762 0C871.155311 87.806702 825.386747 67.386058 774.824702 67.386058L774.824702 67.386058 774.824702 67.386058zM608.778801 84.324403c42.48574-42.418843 101.257884-68.646156 166.045901-68.646156 64.863429 0 123.565026 26.227312 166.050767 68.646156l-0.066897 0.065681 0.066897 0.071762c42.490606 42.413978 68.759273 100.948941 68.759273 165.637221 0 64.682198-26.269883 123.217161-68.759273 165.636005l-0.137443 0.138659c-42.48574 42.413978-101.120441 68.644939-165.912107 68.644939L565.880731 484.518671c-14.234487 0-25.861203-11.545223-25.861203-25.822281l0-208.597323C540.019528 185.415653 566.289411 126.738381 608.778801 84.324403L608.778801 84.324403 608.778801 84.324403zM608.778801 84.324403" p-id="3151" fill="#44b951"></path></svg>