<?xml version="1.0" standalone="no"?>
<!DOCTYPE svg PUBLIC "-//W3C//DTD SVG 20010904//EN"
        "http://www.w3.org/TR/2001/REC-SVG-20010904/DTD/svg10.dtd">
<svg version="1.0" xmlns="http://www.w3.org/2000/svg"
     width="2026.000000pt" height="2026.000000pt" viewBox="0 0 2026.000000 2026.000000"
     preserveAspectRatio="xMidYMid meet">
    <metadata>
        Created by potrace 1.11, written by Peter Selinger 2001-2013
    </metadata>
    <g transform="translate(0.000000,2026.000000) scale(0.100000,-0.100000)"
       fill="#000000" stroke="none">
        <path d="M4638 20235 c-2 -2 -59 -5 -128 -9 -158 -8 -287 -19 -364 -31 -11 -2
-57 -9 -101 -15 -186 -27 -527 -106 -720 -169 -97 -31 -319 -111 -338 -121 -9
-6 -50 -23 -90 -39 -393 -156 -924 -491 -1267 -797 -486 -435 -838 -889 -1119
-1444 -59 -116 -89 -183 -166 -365 -86 -203 -198 -574 -244 -805 -6 -30 -14
-66 -16 -80 -17 -84 -43 -251 -50 -325 -4 -33 -8 -71 -10 -85 -25 -168 -26
-775 -1 -965 2 -16 7 -59 11 -95 3 -36 8 -72 10 -80 2 -8 7 -35 10 -60 10 -85
49 -286 76 -395 11 -44 22 -90 25 -103 2 -12 20 -75 40 -140 187 -625 500
-1210 909 -1697 651 -776 1506 -1317 2480 -1570 72 -19 143 -36 159 -39 16 -3
52 -10 80 -16 100 -21 189 -36 256 -45 25 -3 56 -8 70 -10 14 -2 57 -7 95 -11
39 -3 78 -8 87 -10 77 -14 560 -17 2528 -18 2126 0 2258 1 2310 17 100 32 164
70 231 137 71 70 128 173 147 262 9 46 9 4658 -1 4708 -2 14 -8 63 -11 110 -9
112 -31 267 -56 395 -5 28 -12 66 -15 85 -10 65 -82 344 -119 462 -128 414
-322 827 -562 1196 -41 62 -78 118 -83 125 -6 6 -54 71 -107 142 -79 105 -176
227 -204 255 -3 3 -27 30 -54 60 -305 341 -650 629 -1049 877 -64 40 -119 73
-122 73 -3 0 -23 11 -45 25 -65 41 -325 169 -454 225 -297 127 -682 246 -951
294 -16 3 -41 8 -55 11 -48 10 -136 24 -180 30 -25 3 -56 8 -70 10 -30 6 -216
24 -309 31 -74 5 -459 13 -463 9z m482 -1068 c14 -3 54 -8 90 -12 170 -16 402
-62 585 -115 633 -183 1160 -494 1625 -960 229 -229 385 -427 552 -703 75
-124 191 -353 238 -467 12 -30 28 -68 35 -85 16 -36 96 -276 119 -355 17 -60
61 -247 70 -295 19 -111 35 -218 41 -266 3 -31 8 -67 10 -79 14 -73 18 -520
17 -2185 0 -1023 -1 -1868 -1 -1878 -1 -17 -88 -18 -2018 -14 -1110 2 -2029 6
-2043 9 -14 3 -56 9 -93 12 -37 4 -76 9 -85 11 -9 1 -39 6 -65 9 -26 4 -71 11
-100 17 -29 6 -63 13 -77 15 -14 3 -54 12 -90 20 -36 9 -72 17 -81 19 -29 6
-263 77 -299 90 -388 145 -660 288 -965 509 -168 121 -275 214 -447 387 -337
340 -571 683 -781 1149 -103 230 -207 588 -252 873 -3 17 -7 43 -10 57 -6 34
-14 112 -20 185 -3 33 -7 89 -11 125 -7 78 -7 397 0 460 3 25 8 79 11 120 3
41 8 86 10 100 2 14 7 50 10 80 4 30 8 57 10 60 2 3 6 30 10 60 4 30 9 58 11
61 2 3 6 21 9 40 31 179 143 531 230 724 213 472 444 808 794 1155 430 427
918 723 1491 905 162 52 229 70 295 81 17 3 44 9 60 14 33 10 180 36 260 45
28 4 61 8 75 11 14 2 63 6 110 10 47 3 87 8 89 10 5 5 553 -3 581 -9z"/>
        <path d="M15317 20234 c-1 -1 -67 -5 -147 -8 -79 -4 -147 -9 -150 -11 -3 -1
-36 -6 -75 -9 -38 -4 -81 -8 -95 -11 -14 -2 -61 -9 -105 -15 -44 -7 -89 -14
-100 -16 -10 -2 -36 -6 -56 -9 -20 -3 -50 -10 -68 -15 -17 -5 -34 -9 -36 -9
-16 0 -137 -28 -247 -57 -407 -108 -863 -300 -1219 -514 -154 -93 -273 -173
-414 -279 -256 -192 -592 -507 -769 -721 -43 -52 -86 -104 -95 -115 -111 -134
-309 -425 -418 -615 -184 -321 -344 -700 -443 -1050 -18 -63 -33 -119 -34
-125 -1 -5 -5 -19 -9 -30 -3 -11 -9 -33 -12 -50 -3 -16 -7 -34 -9 -40 -2 -8
-16 -70 -21 -95 -1 -3 -4 -18 -8 -35 -3 -16 -9 -46 -11 -65 -3 -19 -8 -45 -10
-56 -2 -12 -7 -39 -10 -60 -20 -122 -26 -166 -32 -229 -3 -38 -8 -78 -10 -87
-1 -10 -6 -75 -10 -145 -10 -181 -11 -4557 -1 -4618 15 -90 32 -137 73 -201
82 -129 207 -214 359 -242 45 -8 4523 -7 4650 2 61 4 121 9 135 11 14 2 57 7
95 10 89 8 398 59 490 80 39 9 78 18 87 20 127 26 518 149 643 204 11 5 65 28
120 51 567 240 1084 594 1528 1045 120 121 312 343 387 445 30 41 57 77 60 80
14 11 131 182 192 281 121 192 283 499 338 640 10 26 28 66 39 90 59 131 167
463 216 663 17 72 19 79 35 156 5 25 12 56 15 70 8 38 23 130 30 175 3 23 7
50 9 60 2 11 7 49 11 85 4 36 9 76 11 90 2 14 6 61 9 105 4 44 8 98 10 120 5
55 5 512 0 555 -2 19 -6 78 -10 130 -3 52 -8 106 -10 120 -3 14 -7 48 -11 75
-11 98 -45 299 -65 394 -26 118 -97 389 -109 410 -4 9 -8 18 -8 21 1 14 -73
234 -92 275 -5 11 -30 72 -55 135 -311 772 -903 1519 -1610 2031 -660 478
-1485 796 -2265 874 -30 3 -68 8 -85 10 -93 12 -597 28 -608 19z m498 -1067
c11 -3 53 -8 94 -11 41 -4 77 -9 80 -10 3 -2 33 -7 66 -11 33 -3 78 -10 100
-15 22 -5 85 -19 140 -31 180 -38 469 -129 600 -189 11 -5 63 -27 115 -50 171
-76 382 -193 559 -313 42 -28 81 -55 86 -59 6 -5 33 -25 60 -46 404 -300 780
-733 1022 -1177 198 -363 355 -813 407 -1170 4 -23 8 -51 11 -64 2 -13 7 -49
10 -80 4 -31 8 -67 10 -81 24 -161 24 -645 1 -790 -3 -14 -7 -52 -11 -85 -6
-50 -21 -145 -51 -300 -3 -16 -21 -89 -40 -162 -275 -1048 -987 -1919 -1958
-2393 -176 -86 -280 -128 -471 -192 -240 -79 -519 -141 -740 -164 -33 -3 -71
-8 -85 -12 -14 -3 -935 -8 -2046 -9 l-2022 -4 3 2003 c1 1102 5 2017 8 2033 3
17 8 57 11 90 4 33 8 71 10 85 3 14 7 45 10 69 3 24 20 111 36 193 262 1276
1195 2333 2437 2759 48 17 95 32 103 34 8 3 65 18 125 35 194 54 420 94 670
119 82 9 614 7 650 -2z"/>
        <path d="M4549 9556 c-2 -2 -51 -7 -109 -10 -58 -4 -118 -8 -135 -10 -46 -5
-169 -19 -175 -21 -3 0 -32 -5 -65 -9 -124 -16 -447 -86 -600 -130 -5 -1 -30
-8 -55 -15 -59 -17 -277 -90 -315 -106 -16 -7 -73 -29 -125 -50 -132 -52 -433
-199 -565 -275 -94 -54 -378 -235 -410 -262 -5 -5 -41 -32 -80 -60 -38 -29
-75 -57 -82 -63 -7 -5 -18 -15 -25 -20 -300 -237 -606 -549 -829 -845 -43 -58
-83 -111 -89 -117 -24 -29 -221 -335 -265 -413 -264 -463 -468 -1027 -551
-1525 -2 -16 -9 -55 -14 -85 -12 -75 -18 -115 -25 -185 -3 -33 -8 -71 -10 -85
-26 -152 -26 -757 0 -965 2 -16 7 -57 10 -90 5 -50 38 -257 60 -380 3 -16 20
-86 36 -155 17 -69 32 -129 33 -135 27 -110 114 -369 178 -530 187 -466 448
-900 782 -1300 181 -218 522 -542 741 -705 33 -25 62 -48 65 -51 10 -12 209
-147 310 -211 399 -252 891 -466 1323 -574 9 -2 25 -6 35 -9 79 -21 301 -68
372 -79 87 -14 169 -26 210 -30 25 -3 65 -8 90 -11 192 -25 474 -33 735 -21
83 3 164 8 180 11 17 2 59 7 95 10 124 11 392 52 500 76 25 6 52 12 62 14 9 2
85 22 170 44 949 249 1811 803 2456 1576 111 133 422 574 422 598 0 2 22 42
49 88 179 308 348 715 447 1075 27 103 27 100 49 194 8 36 17 72 19 80 2 8 7
35 12 60 4 25 8 47 9 50 10 47 18 90 20 110 2 14 8 54 14 90 6 36 13 94 16
130 4 36 8 76 10 90 3 13 8 72 12 130 10 132 10 4618 1 4683 -4 27 -25 86 -47
130 -67 138 -185 236 -334 277 -71 20 -108 20 -2343 20 -1249 0 -2273 -2
-2275 -4z m3954 -2941 c0 -1683 -4 -2121 -18 -2190 -2 -11 -7 -45 -10 -76 -3
-31 -7 -65 -9 -75 -2 -11 -7 -41 -10 -69 -11 -78 -45 -239 -76 -360 -93 -357
-236 -690 -430 -1005 -79 -129 -255 -375 -300 -420 -3 -3 -30 -34 -59 -70 -65
-77 -280 -293 -370 -370 -218 -189 -524 -392 -780 -519 -355 -177 -800 -312
-1171 -356 -30 -3 -65 -8 -78 -10 -155 -26 -633 -26 -832 0 -19 3 -51 7 -70 9
-905 114 -1778 593 -2365 1299 -374 449 -647 995 -770 1537 -2 8 -8 35 -14 60
-5 25 -13 61 -16 80 -3 19 -8 42 -10 50 -2 8 -7 35 -10 60 -3 25 -8 52 -10 60
-2 8 -6 46 -10 83 -3 37 -8 78 -10 89 -6 31 -18 290 -18 383 0 114 15 348 27
430 3 22 8 60 11 85 3 25 8 56 10 70 3 14 7 41 10 60 28 171 130 534 190 675
7 17 29 71 50 120 236 567 671 1126 1174 1505 140 106 480 320 507 320 4 0 15
6 23 13 45 38 376 176 565 237 150 48 308 91 381 105 32 6 67 12 102 19 11 3
43 8 70 12 26 3 55 8 63 9 9 2 43 6 75 10 33 4 70 8 83 10 13 2 76 7 140 11
64 3 118 7 119 8 1 0 866 1 1924 1 l1922 0 0 -1890z"/>
        <path d="M11115 9548 c-205 -39 -388 -233 -412 -437 -9 -75 -9 -4445 0 -4591
10 -147 13 -192 21 -260 13 -104 26 -207 31 -231 3 -13 10 -53 16 -89 5 -36
15 -85 20 -110 6 -25 13 -57 15 -71 3 -14 18 -77 35 -140 16 -63 32 -125 35
-138 3 -13 29 -96 58 -185 149 -451 376 -899 650 -1281 49 -69 212 -276 255
-325 12 -14 44 -50 71 -81 96 -110 295 -303 435 -424 39 -33 72 -62 75 -65 4
-5 168 -134 221 -173 139 -106 391 -265 585 -368 450 -242 1004 -428 1499
-504 91 -14 174 -24 240 -30 39 -4 80 -8 93 -10 29 -5 324 -18 412 -18 62 0
348 12 420 18 76 7 265 30 330 40 14 3 42 7 64 10 234 38 720 169 879 239 18
7 75 31 127 51 242 97 552 260 797 421 124 81 352 246 394 286 8 7 39 33 69
57 30 25 62 50 70 57 29 24 406 399 436 434 171 199 378 475 459 612 6 9 45
76 89 149 179 302 334 654 442 1009 20 63 37 124 40 134 2 10 8 33 13 50 6 17
13 42 15 56 3 14 12 52 20 85 8 33 17 76 20 95 3 19 12 67 20 105 8 39 17 95
21 125 3 30 8 62 10 70 2 8 7 40 10 70 3 30 8 66 10 80 4 22 9 75 20 235 5 73
5 478 0 560 -6 103 -21 252 -35 360 -23 171 -32 222 -85 460 -79 358 -278 877
-449 1175 -138 242 -211 357 -325 515 -61 85 -182 241 -230 295 -12 14 -46 52
-74 85 -69 80 -304 317 -392 396 -38 34 -113 96 -165 138 -52 42 -97 78 -100
81 -3 3 -52 40 -110 81 -366 264 -744 465 -1169 621 -126 46 -473 150 -537
161 -16 3 -60 12 -99 21 -38 8 -82 18 -98 20 -15 3 -35 7 -45 10 -9 2 -37 7
-62 10 -25 3 -54 8 -65 10 -21 4 -74 11 -160 22 -195 25 -362 29 -1220 29
-484 0 -893 -3 -910 -6 -156 -34 -300 -149 -368 -294 -22 -45 -29 -67 -43
-130 -3 -11 -5 -54 -6 -96 -2 -199 114 -382 297 -469 44 -21 100 -42 125 -46
25 -4 423 -8 885 -9 462 -1 878 -5 925 -9 119 -9 179 -15 225 -23 22 -4 47 -7
55 -8 8 -1 35 -5 60 -9 25 -4 56 -9 70 -12 25 -4 108 -20 145 -28 73 -16 243
-62 320 -86 49 -16 93 -30 97 -30 24 -3 320 -130 431 -185 905 -450 1599
-1263 1896 -2222 48 -156 115 -446 126 -543 12 -110 18 -156 20 -160 8 -13 19
-265 18 -405 -1 -286 -14 -430 -69 -732 -16 -90 -103 -412 -124 -458 -5 -11
-17 -47 -28 -80 -28 -83 -104 -259 -166 -385 -254 -510 -629 -961 -1091 -1311
-75 -57 -271 -190 -305 -206 -14 -7 -34 -18 -45 -25 -118 -77 -350 -189 -540
-263 -269 -104 -566 -181 -825 -215 -47 -6 -95 -13 -108 -15 -147 -25 -687
-25 -832 -1 -14 3 -47 7 -75 11 -45 5 -116 16 -192 30 -16 3 -41 8 -58 10 -48
9 -294 71 -365 94 -308 96 -579 220 -851 387 -90 56 -249 162 -259 174 -3 3
-20 16 -37 29 -129 90 -361 303 -522 481 -509 561 -838 1295 -927 2065 -3 33
-9 76 -11 95 -3 19 -7 1068 -8 2330 -3 2106 -4 2300 -20 2359 -47 181 -182
324 -355 376 -66 20 -196 26 -265 13z"/>
    </g>
</svg>
